<svg xmlns="http://www.w3.org/2000/svg" xmlns:xlink="http://www.w3.org/1999/xlink" width="500" zoomAndPan="magnify" viewBox="0 0 375 374.999991" height="500" preserveAspectRatio="xMidYMid meet" version="1.0"><path fill="#3498db" d="M 315.792969 186.175781 C 314.046875 186.171875 312.308594 186.273438 310.578125 186.476562 C 308.84375 186.679688 307.128906 186.984375 305.433594 187.390625 C 303.738281 187.796875 302.070312 188.296875 300.433594 188.898438 C 298.792969 189.5 297.199219 190.195312 295.640625 190.984375 C 294.085938 191.773438 292.582031 192.652344 291.128906 193.617188 C 289.675781 194.582031 288.285156 195.628906 286.957031 196.757812 C 285.628906 197.890625 284.367188 199.09375 283.179688 200.371094 C 281.992188 201.648438 280.882812 202.988281 279.855469 204.398438 L 244.492188 184.390625 C 246.074219 181.175781 247.300781 177.828125 248.171875 174.355469 C 249.042969 170.878906 249.539062 167.351562 249.660156 163.769531 C 249.78125 160.1875 249.523438 156.632812 248.886719 153.105469 C 248.253906 149.578125 247.253906 146.160156 245.890625 142.84375 L 266.21875 132.203125 C 267.265625 133.375 268.398438 134.457031 269.609375 135.457031 C 270.820312 136.457031 272.101562 137.363281 273.449219 138.171875 C 274.796875 138.976562 276.195312 139.679688 277.648438 140.277344 C 279.101562 140.875 280.59375 141.359375 282.117188 141.734375 C 283.644531 142.109375 285.191406 142.367188 286.753906 142.507812 C 288.320312 142.648438 289.886719 142.671875 291.453125 142.578125 C 293.023438 142.484375 294.574219 142.273438 296.113281 141.945312 C 297.648438 141.621094 299.152344 141.179688 300.621094 140.625 C 302.09375 140.074219 303.515625 139.414062 304.886719 138.648438 C 306.257812 137.882812 307.5625 137.015625 308.804688 136.054688 C 310.046875 135.089844 311.210938 134.039062 312.292969 132.902344 C 313.378906 131.765625 314.371094 130.554688 315.273438 129.265625 C 316.175781 127.980469 316.972656 126.632812 317.675781 125.226562 C 318.375 123.820312 318.964844 122.371094 319.445312 120.875 C 319.925781 119.378906 320.292969 117.855469 320.546875 116.304688 C 320.800781 114.753906 320.933594 113.191406 320.953125 111.621094 C 319.640625 70.292969 259.734375 70.257812 258.378906 111.625 C 258.359375 114.894531 258.871094 118.078125 259.910156 121.179688 L 239.519531 131.757812 C 238.929688 130.992188 238.320312 130.242188 237.6875 129.507812 C 237.058594 128.777344 236.40625 128.0625 235.734375 127.367188 C 235.058594 126.675781 234.367188 126 233.65625 125.34375 C 232.945312 124.6875 232.21875 124.054688 231.46875 123.441406 C 230.722656 122.828125 229.957031 122.234375 229.175781 121.667969 C 228.394531 121.097656 227.597656 120.550781 226.785156 120.027344 C 225.972656 119.5 225.148438 119 224.304688 118.523438 C 223.464844 118.046875 222.609375 117.59375 221.742188 117.167969 C 220.875 116.738281 219.996094 116.335938 219.109375 115.957031 C 218.21875 115.582031 217.316406 115.230469 216.40625 114.902344 C 215.496094 114.578125 214.578125 114.277344 213.652344 114.003906 C 212.722656 113.730469 211.789062 113.480469 210.847656 113.261719 C 209.90625 113.042969 208.957031 112.847656 208.007812 112.683594 C 207.054688 112.515625 206.097656 112.378906 205.136719 112.265625 C 204.175781 112.15625 203.214844 112.070312 202.25 112.015625 C 201.28125 111.960938 200.316406 111.929688 199.351562 111.929688 C 198.382812 111.929688 197.417969 111.957031 196.453125 112.007812 C 195.484375 112.0625 194.523438 112.144531 193.5625 112.253906 C 192.601562 112.363281 191.644531 112.5 190.691406 112.664062 C 189.738281 112.828125 188.792969 113.019531 187.851562 113.238281 C 186.90625 113.457031 185.972656 113.703125 185.046875 113.972656 C 184.117188 114.246094 183.199219 114.542969 182.285156 114.867188 C 181.375 115.191406 180.476562 115.542969 179.585938 115.917969 C 178.695312 116.296875 177.8125 116.695312 176.945312 117.121094 C 176.078125 117.546875 175.222656 118 174.382812 118.472656 C 173.539062 118.949219 172.710938 119.449219 171.898438 119.972656 C 171.085938 120.492188 170.285156 121.039062 169.503906 121.605469 C 168.722656 122.175781 167.957031 122.765625 167.207031 123.378906 C 166.457031 123.988281 165.726562 124.621094 165.015625 125.277344 C 164.304688 125.929688 163.609375 126.601562 162.9375 127.296875 C 162.261719 127.988281 161.609375 128.703125 160.976562 129.433594 C 160.34375 130.164062 159.730469 130.910156 159.140625 131.675781 L 114.292969 107.203125 C 116.28125 102.199219 117.265625 97 117.242188 91.613281 C 115.125 34.03125 32.5 33.910156 30.328125 91.617188 C 30.328125 93.863281 30.5 96.101562 30.84375 98.324219 C 31.1875 100.546875 31.703125 102.726562 32.386719 104.871094 C 33.074219 107.011719 33.917969 109.089844 34.925781 111.101562 C 35.933594 113.113281 37.089844 115.03125 38.394531 116.863281 C 39.699219 118.695312 41.140625 120.414062 42.714844 122.023438 C 44.285156 123.628906 45.972656 125.105469 47.777344 126.453125 C 49.578125 127.796875 51.472656 128.996094 53.464844 130.046875 C 55.453125 131.09375 57.511719 131.984375 59.636719 132.714844 C 61.765625 133.449219 63.933594 134.007812 66.148438 134.402344 C 68.363281 134.796875 70.59375 135.015625 72.84375 135.0625 C 75.09375 135.109375 77.332031 134.980469 79.558594 134.679688 C 81.789062 134.378906 83.980469 133.90625 86.136719 133.261719 C 88.292969 132.621094 90.386719 131.816406 92.414062 130.847656 C 94.445312 129.878906 96.390625 128.761719 98.246094 127.492188 C 100.101562 126.222656 101.847656 124.816406 103.488281 123.273438 C 105.125 121.734375 106.632812 120.074219 108.015625 118.296875 L 152.742188 142.703125 C 151.484375 145.789062 150.539062 148.972656 149.902344 152.242188 C 149.261719 155.515625 148.945312 158.816406 148.949219 162.152344 C 148.957031 165.484375 149.28125 168.785156 149.929688 172.054688 C 150.578125 175.324219 151.53125 178.503906 152.796875 181.585938 C 152.945312 181.675781 58.273438 236.886719 58.28125 236.9375 C 57.851562 236.464844 57.410156 236.007812 56.957031 235.5625 C 56.5 235.117188 56.03125 234.6875 55.546875 234.273438 C 55.066406 233.855469 54.570312 233.457031 54.0625 233.070312 C 53.558594 232.683594 53.039062 232.316406 52.507812 231.960938 C 51.980469 231.605469 51.441406 231.269531 50.890625 230.949219 C 50.339844 230.628906 49.78125 230.324219 49.210938 230.039062 C 48.644531 229.75 48.066406 229.480469 47.480469 229.230469 C 46.894531 228.980469 46.304688 228.746094 45.703125 228.53125 C 45.105469 228.316406 44.5 228.121094 43.886719 227.941406 C 43.277344 227.761719 42.660156 227.605469 42.039062 227.464844 C 41.417969 227.324219 40.792969 227.203125 40.164062 227.101562 C 39.535156 227 38.90625 226.914062 38.269531 226.851562 C 37.636719 226.789062 37.003906 226.746094 36.367188 226.71875 C 35.730469 226.695312 35.09375 226.691406 34.457031 226.703125 C 33.820312 226.71875 33.183594 226.753906 32.550781 226.804688 C 31.914062 226.859375 31.28125 226.933594 30.652344 227.023438 C 30.023438 227.117188 29.394531 227.226562 28.773438 227.355469 C 28.148438 227.488281 27.53125 227.636719 26.914062 227.804688 C 26.300781 227.972656 25.691406 228.160156 25.089844 228.363281 C 24.488281 228.570312 23.890625 228.792969 23.300781 229.035156 C 22.710938 229.277344 22.132812 229.539062 21.558594 229.816406 C 20.984375 230.09375 20.421875 230.386719 19.867188 230.699219 C 19.308594 231.011719 18.765625 231.339844 18.230469 231.683594 C 17.695312 232.03125 17.171875 232.390625 16.65625 232.769531 C 16.144531 233.144531 15.644531 233.539062 15.15625 233.945312 C 14.667969 234.355469 14.191406 234.777344 13.726562 235.214844 C 13.265625 235.652344 12.816406 236.101562 12.378906 236.566406 C 11.945312 237.03125 11.523438 237.507812 11.117188 238 C 10.710938 238.488281 10.320312 238.992188 9.945312 239.507812 C 9.566406 240.019531 9.207031 240.546875 8.863281 241.082031 C 8.523438 241.617188 8.195312 242.164062 7.886719 242.722656 C 7.574219 243.277344 7.28125 243.84375 7.007812 244.417969 C 6.730469 244.992188 6.472656 245.574219 6.234375 246.164062 C 5.992188 246.753906 5.773438 247.351562 5.570312 247.953125 C 5.367188 248.558594 5.179688 249.164062 5.015625 249.78125 C 4.847656 250.394531 4.703125 251.015625 4.574219 251.636719 C 4.445312 252.261719 4.335938 252.890625 4.246094 253.519531 C 4.15625 254.152344 4.085938 254.78125 4.035156 255.417969 C 3.984375 256.054688 3.953125 256.6875 3.941406 257.324219 C 3.929688 257.960938 3.9375 258.597656 3.964844 259.234375 C 3.988281 259.871094 4.035156 260.503906 4.101562 261.140625 C 4.167969 261.773438 4.253906 262.402344 4.355469 263.03125 C 4.460938 263.660156 4.585938 264.285156 4.726562 264.90625 C 4.871094 265.527344 5.03125 266.140625 5.210938 266.753906 C 5.390625 267.363281 5.589844 267.96875 5.804688 268.566406 C 6.023438 269.164062 6.257812 269.757812 6.511719 270.339844 C 6.765625 270.925781 7.035156 271.5 7.324219 272.070312 C 7.613281 272.636719 7.917969 273.195312 8.242188 273.746094 C 8.566406 274.292969 8.902344 274.832031 9.261719 275.359375 C 9.617188 275.886719 9.988281 276.40625 10.375 276.910156 C 10.761719 277.417969 11.164062 277.910156 11.582031 278.390625 C 12 278.871094 12.429688 279.339844 12.875 279.792969 C 13.324219 280.246094 13.78125 280.6875 14.253906 281.113281 C 14.730469 281.539062 15.214844 281.953125 15.710938 282.347656 C 16.210938 282.746094 16.722656 283.125 17.242188 283.492188 C 17.765625 283.859375 18.296875 284.207031 18.839844 284.539062 C 19.382812 284.871094 19.933594 285.1875 20.496094 285.488281 C 21.058594 285.785156 21.628906 286.066406 22.210938 286.332031 C 22.789062 286.597656 23.375 286.84375 23.96875 287.070312 C 24.566406 287.300781 25.164062 287.507812 25.773438 287.699219 C 26.378906 287.890625 26.992188 288.0625 27.609375 288.21875 C 28.230469 288.371094 28.851562 288.507812 29.476562 288.625 C 30.105469 288.738281 30.734375 288.835938 31.363281 288.914062 C 31.996094 288.992188 32.632812 289.046875 33.265625 289.085938 C 33.902344 289.125 34.539062 289.144531 35.175781 289.144531 C 35.8125 289.144531 36.449219 289.125 37.085938 289.085938 C 37.71875 289.046875 38.355469 288.988281 38.984375 288.910156 C 39.617188 288.832031 40.246094 288.734375 40.871094 288.617188 C 41.5 288.5 42.121094 288.363281 42.738281 288.210938 C 43.355469 288.054688 43.96875 287.882812 44.574219 287.691406 C 45.183594 287.5 45.785156 287.289062 46.378906 287.058594 C 46.972656 286.832031 47.558594 286.582031 48.136719 286.320312 C 48.71875 286.054688 49.289062 285.773438 49.851562 285.472656 C 50.414062 285.171875 50.964844 284.855469 51.507812 284.523438 C 52.050781 284.191406 52.582031 283.839844 53.101562 283.472656 C 53.625 283.109375 54.132812 282.726562 54.632812 282.328125 C 55.128906 281.933594 55.613281 281.519531 56.085938 281.09375 C 56.558594 280.667969 57.019531 280.226562 57.464844 279.769531 C 57.910156 279.316406 58.339844 278.847656 58.757812 278.367188 C 59.175781 277.886719 59.578125 277.390625 59.964844 276.886719 C 60.351562 276.378906 60.722656 275.863281 61.078125 275.332031 C 61.433594 274.804688 61.769531 274.265625 62.09375 273.714844 C 62.414062 273.167969 62.71875 272.609375 63.007812 272.039062 C 63.296875 271.472656 63.566406 270.894531 63.820312 270.3125 C 64.070312 269.726562 64.304688 269.136719 64.523438 268.535156 C 64.738281 267.9375 64.9375 267.332031 65.117188 266.722656 C 65.296875 266.109375 65.457031 265.496094 65.597656 264.875 C 65.742188 264.253906 65.863281 263.628906 65.96875 263 C 66.070312 262.371094 66.15625 261.742188 66.21875 261.109375 C 66.285156 260.472656 66.332031 259.839844 66.355469 259.203125 C 66.382812 258.566406 66.390625 257.929688 66.378906 257.292969 C 66.363281 256.65625 66.332031 256.019531 66.28125 255.386719 C 66.230469 254.75 66.15625 254.117188 66.066406 253.488281 C 65.976562 252.859375 65.867188 252.230469 65.738281 251.609375 C 65.609375 250.984375 65.460938 250.363281 65.296875 249.75 C 65.128906 249.136719 64.945312 248.527344 64.738281 247.921875 L 159.257812 192.636719 C 161.289062 195.285156 163.554688 197.710938 166.0625 199.914062 C 168.570312 202.113281 171.265625 204.050781 174.152344 205.71875 C 177.042969 207.390625 180.066406 208.761719 183.222656 209.835938 C 186.382812 210.910156 189.613281 211.667969 192.921875 212.105469 L 192.921875 266.59375 C 192.210938 266.726562 191.507812 266.878906 190.808594 267.054688 C 190.109375 267.226562 189.417969 267.425781 188.730469 267.640625 C 188.042969 267.859375 187.367188 268.097656 186.691406 268.355469 C 186.019531 268.617188 185.359375 268.894531 184.703125 269.195312 C 184.046875 269.496094 183.402344 269.816406 182.769531 270.15625 C 182.132812 270.496094 181.507812 270.855469 180.894531 271.234375 C 180.28125 271.613281 179.683594 272.011719 179.09375 272.425781 C 178.503906 272.84375 177.929688 273.273438 177.367188 273.726562 C 176.808594 274.175781 176.257812 274.644531 175.726562 275.128906 C 175.195312 275.613281 174.675781 276.117188 174.175781 276.632812 C 173.671875 277.148438 173.1875 277.679688 172.71875 278.226562 C 172.25 278.773438 171.796875 279.335938 171.363281 279.910156 C 170.925781 280.484375 170.511719 281.070312 170.113281 281.671875 C 169.714844 282.269531 169.335938 282.882812 168.972656 283.507812 C 168.613281 284.128906 168.273438 284.765625 167.949219 285.410156 C 167.628906 286.054688 167.328125 286.707031 167.046875 287.371094 C 166.765625 288.035156 166.503906 288.707031 166.265625 289.382812 C 166.023438 290.0625 165.804688 290.75 165.609375 291.441406 C 165.410156 292.136719 165.234375 292.832031 165.078125 293.539062 C 164.925781 294.242188 164.792969 294.949219 164.679688 295.660156 C 164.570312 296.371094 164.480469 297.085938 164.414062 297.804688 C 164.347656 298.519531 164.304688 299.238281 164.28125 299.960938 C 164.257812 300.679688 164.257812 301.398438 164.28125 302.121094 C 164.300781 302.839844 164.34375 303.558594 164.410156 304.277344 C 164.476562 304.992188 164.566406 305.707031 164.675781 306.421875 C 164.785156 307.132812 164.917969 307.839844 165.074219 308.542969 C 165.226562 309.246094 165.402344 309.945312 165.597656 310.640625 C 165.796875 311.332031 166.015625 312.019531 166.253906 312.699219 C 166.492188 313.378906 166.753906 314.046875 167.035156 314.710938 C 167.3125 315.375 167.613281 316.03125 167.9375 316.675781 C 168.257812 317.320312 168.597656 317.953125 168.957031 318.578125 C 169.316406 319.203125 169.695312 319.8125 170.09375 320.414062 C 170.492188 321.015625 170.910156 321.601562 171.34375 322.175781 C 171.777344 322.753906 172.226562 323.3125 172.695312 323.859375 C 173.164062 324.40625 173.652344 324.941406 174.152344 325.457031 C 174.652344 325.972656 175.171875 326.476562 175.703125 326.960938 C 176.234375 327.445312 176.78125 327.914062 177.34375 328.367188 C 177.90625 328.816406 178.480469 329.25 179.066406 329.667969 C 179.65625 330.082031 180.257812 330.480469 180.867188 330.859375 C 181.480469 331.238281 182.105469 331.597656 182.738281 331.941406 C 183.375 332.28125 184.019531 332.601562 184.675781 332.902344 C 185.328125 333.203125 185.992188 333.484375 186.664062 333.742188 C 187.335938 334.003906 188.015625 334.242188 188.703125 334.460938 C 189.386719 334.679688 190.082031 334.875 190.78125 335.050781 C 191.476562 335.226562 192.179688 335.378906 192.890625 335.511719 C 193.597656 335.644531 194.308594 335.753906 195.023438 335.84375 C 195.738281 335.929688 196.457031 335.996094 197.175781 336.039062 C 197.894531 336.085938 198.613281 336.105469 199.335938 336.105469 C 200.054688 336.105469 200.773438 336.082031 201.492188 336.039062 C 202.210938 335.992188 202.929688 335.925781 203.644531 335.835938 C 204.359375 335.746094 205.070312 335.636719 205.777344 335.503906 C 206.488281 335.371094 207.191406 335.214844 207.890625 335.039062 C 208.585938 334.863281 209.28125 334.667969 209.964844 334.449219 C 210.652344 334.230469 211.332031 333.988281 212.003906 333.726562 C 212.675781 333.46875 213.335938 333.1875 213.992188 332.882812 C 214.644531 332.582031 215.289062 332.261719 215.925781 331.917969 C 216.558594 331.578125 217.183594 331.21875 217.792969 330.835938 C 218.40625 330.457031 219.007812 330.058594 219.59375 329.644531 C 220.179688 329.226562 220.753906 328.792969 221.316406 328.339844 C 221.875 327.886719 222.421875 327.417969 222.953125 326.933594 C 223.488281 326.445312 224.003906 325.945312 224.503906 325.425781 C 225.003906 324.910156 225.488281 324.375 225.957031 323.828125 C 226.425781 323.28125 226.875 322.71875 227.308594 322.144531 C 227.742188 321.566406 228.160156 320.980469 228.554688 320.378906 C 228.953125 319.777344 229.332031 319.164062 229.691406 318.539062 C 230.050781 317.917969 230.390625 317.28125 230.710938 316.636719 C 231.03125 315.992188 231.332031 315.335938 231.609375 314.671875 C 231.890625 314.007812 232.148438 313.335938 232.386719 312.65625 C 232.625 311.976562 232.84375 311.289062 233.039062 310.597656 C 233.234375 309.90625 233.410156 309.207031 233.5625 308.503906 C 233.714844 307.796875 233.847656 307.089844 233.957031 306.378906 C 234.066406 305.664062 234.152344 304.953125 234.21875 304.234375 C 234.285156 303.515625 234.328125 302.796875 234.347656 302.078125 C 234.371094 301.355469 234.367188 300.636719 234.34375 299.917969 C 234.320312 299.195312 234.277344 298.480469 234.207031 297.761719 C 234.140625 297.042969 234.050781 296.328125 233.9375 295.617188 C 233.828125 294.90625 233.691406 294.199219 233.539062 293.496094 C 233.382812 292.792969 233.207031 292.09375 233.007812 291.402344 C 232.808594 290.707031 232.589844 290.023438 232.347656 289.34375 C 232.109375 288.664062 231.847656 287.996094 231.5625 287.332031 C 231.28125 286.667969 230.980469 286.015625 230.65625 285.371094 C 230.335938 284.726562 229.992188 284.09375 229.632812 283.46875 C 229.269531 282.847656 228.890625 282.234375 228.492188 281.636719 C 228.089844 281.035156 227.675781 280.449219 227.238281 279.875 C 226.804688 279.300781 226.351562 278.742188 225.882812 278.195312 C 225.410156 277.648438 224.925781 277.117188 224.421875 276.601562 C 223.917969 276.085938 223.402344 275.585938 222.867188 275.101562 C 222.335938 274.617188 221.785156 274.148438 221.226562 273.699219 C 220.664062 273.25 220.085938 272.816406 219.496094 272.402344 C 218.910156 271.988281 218.308594 271.589844 217.695312 271.210938 C 217.082031 270.835938 216.457031 270.476562 215.820312 270.136719 C 215.1875 269.796875 214.539062 269.476562 213.886719 269.179688 C 213.230469 268.878906 212.566406 268.601562 211.894531 268.339844 C 211.222656 268.082031 210.542969 267.84375 209.855469 267.628906 C 209.167969 267.414062 208.472656 267.21875 207.773438 267.042969 C 207.074219 266.867188 206.371094 266.714844 205.664062 266.585938 L 205.664062 212.109375 C 208.722656 211.722656 211.71875 211.058594 214.652344 210.117188 C 217.585938 209.175781 220.414062 207.976562 223.125 206.519531 C 225.839844 205.058594 228.398438 203.363281 230.800781 201.433594 C 233.203125 199.5 235.40625 197.367188 237.417969 195.03125 L 273.800781 215.613281 C 273.496094 216.453125 273.21875 217.304688 272.964844 218.164062 C 272.710938 219.019531 272.480469 219.886719 272.28125 220.757812 C 272.078125 221.632812 271.902344 222.507812 271.753906 223.390625 C 271.605469 224.273438 271.480469 225.160156 271.382812 226.050781 C 271.289062 226.941406 271.21875 227.832031 271.175781 228.726562 C 271.132812 229.621094 271.117188 230.515625 271.125 231.410156 C 271.136719 232.304688 271.171875 233.199219 271.238281 234.089844 C 271.300781 234.984375 271.390625 235.875 271.507812 236.761719 C 271.625 237.648438 271.769531 238.53125 271.9375 239.410156 C 272.105469 240.289062 272.304688 241.164062 272.523438 242.03125 C 272.746094 242.898438 272.992188 243.757812 273.265625 244.609375 C 273.539062 245.464844 273.839844 246.304688 274.164062 247.140625 C 274.488281 247.976562 274.835938 248.800781 275.207031 249.613281 C 275.582031 250.425781 275.976562 251.230469 276.398438 252.019531 C 276.820312 252.808594 277.261719 253.585938 277.730469 254.351562 C 278.199219 255.113281 278.6875 255.863281 279.199219 256.597656 C 279.710938 257.332031 280.246094 258.050781 280.800781 258.75 C 281.355469 259.453125 281.929688 260.140625 282.527344 260.808594 C 283.121094 261.476562 283.738281 262.125 284.371094 262.753906 C 285.007812 263.386719 285.660156 264 286.332031 264.589844 C 287.003906 265.183594 287.691406 265.753906 288.398438 266.304688 C 289.101562 266.855469 289.824219 267.386719 290.5625 267.894531 C 291.296875 268.402344 292.050781 268.886719 292.816406 269.351562 C 293.582031 269.8125 294.359375 270.253906 295.152344 270.667969 C 295.945312 271.085938 296.75 271.476562 297.566406 271.847656 C 298.382812 272.214844 299.207031 272.558594 300.042969 272.878906 C 300.878906 273.195312 301.726562 273.492188 302.578125 273.757812 C 303.433594 274.027344 304.292969 274.269531 305.164062 274.488281 C 306.03125 274.703125 306.90625 274.894531 307.785156 275.058594 C 308.664062 275.222656 309.550781 275.363281 310.4375 275.476562 C 311.324219 275.585938 312.214844 275.671875 313.109375 275.730469 C 314.003906 275.789062 314.898438 275.820312 315.792969 275.828125 C 375.1875 273.601562 375.234375 188.464844 315.792969 186.175781 Z M 315.792969 186.175781 " fill-opacity="1" fill-rule="nonzero"/><path fill="#ffffff" d="M 200.84375 96.265625 C 201.570312 96.257812 202.292969 96.21875 203.015625 96.140625 C 203.734375 96.0625 204.453125 95.949219 205.164062 95.800781 C 205.875 95.652344 206.574219 95.472656 207.269531 95.257812 C 207.960938 95.039062 208.644531 94.789062 209.3125 94.507812 C 209.980469 94.226562 210.632812 93.910156 211.273438 93.5625 C 211.910156 93.21875 212.53125 92.839844 213.128906 92.433594 C 213.730469 92.027344 214.3125 91.59375 214.871094 91.128906 C 215.429688 90.664062 215.964844 90.175781 216.476562 89.660156 C 216.984375 89.144531 217.46875 88.605469 217.929688 88.039062 C 218.386719 87.476562 218.816406 86.894531 219.21875 86.289062 C 219.617188 85.683594 219.988281 85.058594 220.328125 84.417969 C 220.671875 83.777344 220.976562 83.121094 221.253906 82.449219 C 221.53125 81.777344 221.773438 81.09375 221.984375 80.398438 C 222.191406 79.707031 222.367188 79 222.507812 78.289062 C 222.648438 77.578125 222.753906 76.859375 222.824219 76.136719 C 222.894531 75.414062 222.933594 74.691406 222.933594 73.964844 C 222.933594 73.238281 222.894531 72.515625 222.824219 71.792969 C 222.753906 71.070312 222.648438 70.351562 222.507812 69.640625 C 222.367188 68.925781 222.191406 68.222656 221.984375 67.527344 C 221.773438 66.832031 221.53125 66.148438 221.253906 65.480469 C 220.976562 64.808594 220.667969 64.152344 220.328125 63.511719 C 219.988281 62.867188 219.617188 62.246094 219.21875 61.640625 C 218.816406 61.035156 218.386719 60.449219 217.929688 59.886719 C 217.46875 59.324219 216.984375 58.785156 216.472656 58.269531 C 215.964844 57.753906 215.429688 57.265625 214.871094 56.800781 C 214.3125 56.335938 213.730469 55.902344 213.128906 55.496094 C 212.527344 55.089844 211.910156 54.710938 211.269531 54.363281 C 210.632812 54.019531 209.980469 53.703125 209.3125 53.421875 C 208.640625 53.140625 207.960938 52.890625 207.269531 52.671875 C 206.574219 52.457031 205.875 52.273438 205.164062 52.128906 C 204.453125 51.980469 203.734375 51.867188 203.011719 51.789062 C 202.292969 51.710938 201.566406 51.671875 200.84375 51.664062 C 200.117188 51.671875 199.390625 51.710938 198.671875 51.789062 C 197.949219 51.867188 197.230469 51.980469 196.519531 52.128906 C 195.808594 52.277344 195.109375 52.457031 194.414062 52.671875 C 193.722656 52.890625 193.042969 53.140625 192.371094 53.421875 C 191.703125 53.703125 191.050781 54.019531 190.414062 54.367188 C 189.773438 54.710938 189.15625 55.089844 188.554688 55.496094 C 187.953125 55.902344 187.371094 56.335938 186.8125 56.800781 C 186.253906 57.265625 185.71875 57.753906 185.210938 58.269531 C 184.699219 58.785156 184.214844 59.324219 183.757812 59.886719 C 183.296875 60.453125 182.867188 61.035156 182.46875 61.640625 C 182.066406 62.246094 181.695312 62.871094 181.355469 63.511719 C 181.015625 64.152344 180.707031 64.808594 180.429688 65.480469 C 180.152344 66.152344 179.910156 66.835938 179.703125 67.527344 C 179.492188 68.222656 179.316406 68.929688 179.175781 69.640625 C 179.035156 70.351562 178.929688 71.070312 178.859375 71.792969 C 178.789062 72.515625 178.753906 73.238281 178.753906 73.964844 C 178.753906 74.691406 178.789062 75.414062 178.859375 76.136719 C 178.929688 76.859375 179.035156 77.578125 179.175781 78.289062 C 179.316406 79.003906 179.492188 79.707031 179.703125 80.402344 C 179.910156 81.097656 180.152344 81.777344 180.429688 82.449219 C 180.707031 83.121094 181.015625 83.777344 181.355469 84.417969 C 181.695312 85.0625 182.066406 85.683594 182.46875 86.289062 C 182.867188 86.894531 183.296875 87.476562 183.757812 88.042969 C 184.214844 88.605469 184.699219 89.144531 185.210938 89.660156 C 185.722656 90.175781 186.253906 90.664062 186.816406 91.128906 C 187.375 91.59375 187.953125 92.027344 188.554688 92.433594 C 189.15625 92.839844 189.773438 93.21875 190.414062 93.566406 C 191.050781 93.910156 191.703125 94.226562 192.375 94.507812 C 193.042969 94.789062 193.722656 95.039062 194.417969 95.257812 C 195.109375 95.472656 195.8125 95.652344 196.523438 95.800781 C 197.234375 95.949219 197.949219 96.0625 198.671875 96.140625 C 199.394531 96.21875 200.117188 96.257812 200.84375 96.265625 Z M 200.84375 96.265625 " fill-opacity="1" fill-rule="nonzero"/><path fill="#ffffff" d="M 142.539062 227.910156 C 141.8125 227.917969 141.089844 227.960938 140.367188 228.039062 C 139.644531 228.113281 138.929688 228.226562 138.21875 228.375 C 137.507812 228.523438 136.804688 228.703125 136.113281 228.921875 C 135.421875 229.136719 134.738281 229.386719 134.070312 229.667969 C 133.402344 229.953125 132.75 230.265625 132.109375 230.613281 C 131.472656 230.957031 130.851562 231.335938 130.253906 231.742188 C 129.652344 232.148438 129.070312 232.585938 128.511719 233.046875 C 127.953125 233.511719 127.417969 234 126.90625 234.515625 C 126.398438 235.03125 125.914062 235.574219 125.453125 236.136719 C 124.996094 236.699219 124.566406 237.28125 124.164062 237.886719 C 123.765625 238.492188 123.394531 239.117188 123.054688 239.757812 C 122.710938 240.398438 122.40625 241.054688 122.128906 241.726562 C 121.851562 242.398438 121.609375 243.082031 121.398438 243.777344 C 121.191406 244.472656 121.015625 245.175781 120.875 245.886719 C 120.734375 246.597656 120.628906 247.316406 120.558594 248.039062 C 120.484375 248.761719 120.449219 249.484375 120.449219 250.210938 C 120.449219 250.9375 120.484375 251.664062 120.558594 252.382812 C 120.628906 253.105469 120.734375 253.824219 120.875 254.535156 C 121.015625 255.25 121.191406 255.953125 121.398438 256.648438 C 121.609375 257.34375 121.851562 258.027344 122.128906 258.699219 C 122.40625 259.367188 122.710938 260.023438 123.054688 260.667969 C 123.394531 261.308594 123.765625 261.929688 124.164062 262.535156 C 124.566406 263.140625 124.996094 263.726562 125.453125 264.289062 C 125.914062 264.851562 126.398438 265.390625 126.90625 265.90625 C 127.417969 266.421875 127.953125 266.914062 128.511719 267.375 C 129.070312 267.839844 129.652344 268.273438 130.253906 268.679688 C 130.855469 269.089844 131.472656 269.464844 132.109375 269.8125 C 132.75 270.15625 133.402344 270.472656 134.070312 270.753906 C 134.738281 271.039062 135.421875 271.289062 136.113281 271.503906 C 136.808594 271.71875 137.507812 271.902344 138.21875 272.050781 C 138.929688 272.195312 139.648438 272.308594 140.367188 272.386719 C 141.089844 272.464844 141.8125 272.507812 142.539062 272.511719 C 143.265625 272.507812 143.988281 272.464844 144.710938 272.386719 C 145.433594 272.308594 146.148438 272.195312 146.859375 272.046875 C 147.570312 271.902344 148.273438 271.71875 148.964844 271.503906 C 149.660156 271.289062 150.339844 271.039062 151.007812 270.753906 C 151.679688 270.472656 152.332031 270.15625 152.96875 269.8125 C 153.605469 269.464844 154.226562 269.089844 154.828125 268.679688 C 155.429688 268.273438 156.007812 267.839844 156.566406 267.375 C 157.125 266.914062 157.660156 266.421875 158.171875 265.90625 C 158.683594 265.390625 159.167969 264.851562 159.625 264.289062 C 160.085938 263.726562 160.515625 263.140625 160.914062 262.535156 C 161.316406 261.929688 161.6875 261.308594 162.027344 260.667969 C 162.367188 260.023438 162.675781 259.367188 162.953125 258.699219 C 163.226562 258.027344 163.472656 257.34375 163.679688 256.648438 C 163.890625 255.953125 164.066406 255.25 164.207031 254.535156 C 164.347656 253.824219 164.453125 253.105469 164.523438 252.382812 C 164.59375 251.664062 164.628906 250.9375 164.628906 250.210938 C 164.628906 249.484375 164.59375 248.761719 164.523438 248.039062 C 164.453125 247.316406 164.347656 246.597656 164.207031 245.886719 C 164.066406 245.175781 163.890625 244.472656 163.679688 243.777344 C 163.472656 243.082031 163.226562 242.398438 162.953125 241.726562 C 162.675781 241.054688 162.367188 240.398438 162.027344 239.757812 C 161.6875 239.117188 161.316406 238.492188 160.914062 237.886719 C 160.515625 237.28125 160.085938 236.699219 159.625 236.136719 C 159.167969 235.574219 158.683594 235.03125 158.171875 234.515625 C 157.660156 234 157.125 233.511719 156.566406 233.046875 C 156.007812 232.585938 155.429688 232.148438 154.828125 231.742188 C 154.226562 231.335938 153.605469 230.957031 152.96875 230.613281 C 152.332031 230.265625 151.675781 229.953125 151.007812 229.667969 C 150.339844 229.386719 149.660156 229.136719 148.964844 228.921875 C 148.273438 228.703125 147.570312 228.523438 146.859375 228.375 C 146.148438 228.226562 145.433594 228.113281 144.710938 228.039062 C 143.988281 227.960938 143.265625 227.917969 142.539062 227.910156 Z M 142.539062 227.910156 " fill-opacity="1" fill-rule="nonzero"/><path fill="#ffffff" d="M 122.214844 171.390625 C 122.207031 170.664062 122.164062 169.941406 122.089844 169.21875 C 122.011719 168.496094 121.898438 167.777344 121.753906 167.066406 C 121.605469 166.355469 121.421875 165.652344 121.207031 164.960938 C 120.992188 164.265625 120.742188 163.585938 120.460938 162.914062 C 120.179688 162.246094 119.863281 161.59375 119.519531 160.953125 C 119.171875 160.316406 118.796875 159.695312 118.386719 159.09375 C 117.980469 158.492188 117.546875 157.910156 117.082031 157.351562 C 116.621094 156.792969 116.128906 156.257812 115.613281 155.746094 C 115.097656 155.234375 114.558594 154.75 113.996094 154.289062 C 113.433594 153.832031 112.847656 153.402344 112.242188 153 C 111.636719 152.597656 111.011719 152.226562 110.371094 151.886719 C 109.730469 151.546875 109.074219 151.238281 108.402344 150.960938 C 107.730469 150.683594 107.046875 150.441406 106.351562 150.230469 C 105.65625 150.019531 104.953125 149.84375 104.238281 149.703125 C 103.527344 149.5625 102.808594 149.457031 102.085938 149.386719 C 101.363281 149.316406 100.636719 149.28125 99.910156 149.28125 C 99.183594 149.28125 98.460938 149.316406 97.738281 149.386719 C 97.015625 149.457031 96.296875 149.5625 95.582031 149.703125 C 94.871094 149.84375 94.167969 150.019531 93.472656 150.230469 C 92.777344 150.441406 92.09375 150.683594 91.421875 150.960938 C 90.75 151.238281 90.09375 151.546875 89.449219 151.886719 C 88.808594 152.226562 88.1875 152.597656 87.582031 153 C 86.976562 153.402344 86.390625 153.832031 85.828125 154.289062 C 85.265625 154.75 84.726562 155.234375 84.207031 155.746094 C 83.691406 156.257812 83.203125 156.792969 82.738281 157.351562 C 82.277344 157.910156 81.839844 158.492188 81.433594 159.09375 C 81.027344 159.695312 80.652344 160.316406 80.304688 160.953125 C 79.957031 161.59375 79.644531 162.246094 79.363281 162.917969 C 79.078125 163.585938 78.832031 164.265625 78.613281 164.960938 C 78.398438 165.65625 78.21875 166.355469 78.070312 167.066406 C 77.921875 167.78125 77.8125 168.496094 77.734375 169.21875 C 77.65625 169.941406 77.617188 170.664062 77.609375 171.390625 C 77.617188 172.117188 77.65625 172.84375 77.734375 173.566406 C 77.8125 174.289062 77.921875 175.003906 78.070312 175.714844 C 78.21875 176.425781 78.398438 177.128906 78.613281 177.824219 C 78.832031 178.515625 79.078125 179.199219 79.363281 179.867188 C 79.644531 180.535156 79.957031 181.191406 80.304688 181.828125 C 80.652344 182.46875 81.027344 183.089844 81.433594 183.691406 C 81.839844 184.292969 82.277344 184.871094 82.738281 185.433594 C 83.203125 185.992188 83.695312 186.527344 84.210938 187.039062 C 84.726562 187.550781 85.265625 188.035156 85.828125 188.492188 C 86.390625 188.953125 86.976562 189.382812 87.582031 189.785156 C 88.1875 190.1875 88.808594 190.558594 89.453125 190.898438 C 90.09375 191.238281 90.75 191.546875 91.421875 191.824219 C 92.09375 192.101562 92.777344 192.34375 93.472656 192.550781 C 94.167969 192.761719 94.871094 192.9375 95.585938 193.078125 C 96.296875 193.21875 97.015625 193.324219 97.738281 193.394531 C 98.460938 193.46875 99.183594 193.503906 99.910156 193.503906 C 100.636719 193.503906 101.363281 193.46875 102.085938 193.394531 C 102.808594 193.324219 103.527344 193.21875 104.238281 193.078125 C 104.953125 192.9375 105.65625 192.761719 106.351562 192.550781 C 107.046875 192.34375 107.730469 192.097656 108.402344 191.824219 C 109.074219 191.546875 109.730469 191.238281 110.371094 190.898438 C 111.015625 190.554688 111.636719 190.183594 112.242188 189.785156 C 112.847656 189.382812 113.433594 188.953125 113.996094 188.492188 C 114.558594 188.035156 115.097656 187.550781 115.613281 187.039062 C 116.128906 186.527344 116.621094 185.992188 117.082031 185.429688 C 117.546875 184.871094 117.980469 184.292969 118.390625 183.691406 C 118.796875 183.085938 119.171875 182.46875 119.519531 181.828125 C 119.863281 181.191406 120.179688 180.535156 120.460938 179.867188 C 120.742188 179.199219 120.992188 178.515625 121.207031 177.824219 C 121.425781 177.128906 121.605469 176.425781 121.753906 175.714844 C 121.898438 175.003906 122.011719 174.285156 122.089844 173.5625 C 122.164062 172.84375 122.207031 172.117188 122.214844 171.390625 Z M 122.214844 171.390625 " fill-opacity="1" fill-rule="nonzero"/></svg>